PathFileType	4	(X/Y/Z)	C:\Users\Basilio\Documents\Thesis Gigler\squatting_fais\c3dfiles\076\SJ_pre5\markers_experimental.trc
DataRate	CameraRate	NumFrames	NumMarkers	Units	OrigDataRate	OrigDataStartFrame	OrigNumFrames
200.000000	200.000000	4	61	mm	200.000000	966	1289
Frame#	Time	FHD			LBHD			RBHD			C7			T10			CLAV			LSHO			LUUPA			LMUPA			LDUPA			LLEP			LMEP			LRAD			LUL			LRFIN			RSHO			RUPA1			RMUPA			RDUPA			RLEP			RMEP			RRAD			RUL			RUFIN			LASI			RASI			USACR			LSACR			RSACR			LTHI1			LTHI2			LTHI3			LTHI4			LLFC			LMFC			LTIB1			LTIB2			LTIB3			LTIB4			LLMAL			LMMAL			LHEE			LMT1			LMT2			LMT5			RTHI			RTHI2			RTHI3			RTHI4			RLFC			RMFC			RTIB1			RTIB2			RTIB3			RTIB4			RLMAL			RMMAL			RHEE			RMT1			RMT2			RMT5			
		X1	Y1	Z1	X2	Y2	Z2	X3	Y3	Z3	X4	Y4	Z4	X5	Y5	Z5	X6	Y6	Z6	X7	Y7	Z7	X8	Y8	Z8	X9	Y9	Z9	X10	Y10	Z10	X11	Y11	Z11	X12	Y12	Z12	X13	Y13	Z13	X14	Y14	Z14	X15	Y15	Z15	X16	Y16	Z16	X17	Y17	Z17	X18	Y18	Z18	X19	Y19	Z19	X20	Y20	Z20	X21	Y21	Z21	X22	Y22	Z22	X23	Y23	Z23	X24	Y24	Z24	X25	Y25	Z25	X26	Y26	Z26	X27	Y27	Z27	X28	Y28	Z28	X29	Y29	Z29	X30	Y30	Z30	X31	Y31	Z31	X32	Y32	Z32	X33	Y33	Z33	X34	Y34	Z34	X35	Y35	Z35	X36	Y36	Z36	X37	Y37	Z37	X38	Y38	Z38	X39	Y39	Z39	X40	Y40	Z40	X41	Y41	Z41	X42	Y42	Z42	X43	Y43	Z43	X44	Y44	Z44	X45	Y45	Z45	X46	Y46	Z46	X47	Y47	Z47	X48	Y48	Z48	X49	Y49	Z49	X50	Y50	Z50	X51	Y51	Z51	X52	Y52	Z52	X53	Y53	Z53	X54	Y54	Z54	X55	Y55	Z55	X56	Y56	Z56	X57	Y57	Z57	X58	Y58	Z58	X59	Y59	Z59	X60	Y60	Z60	X61	Y61	Z61	

967	4.83	-231.7601470947266	1637.826416015625	-842.080017089844	-334.7747192382813	1528.287109375	-946.3508300781252	-330.8197021484376	1532.400146484375	-793.3514404296877	-349.5315551757813	1421.9345703125	-861.9190673828127	-372.1394348144532	1105.686279296875	-875.523620605469	-203.6027984619141	1357.130859375	-868.1076660156252	-282.1992187500001	1379.718017578125	-1038.297973632813	-280.4548950195313	1230.720703125	-1172.272094726563	-263.6598205566407	1186.954833984375	-1155.217895507813	-283.6238403320313	1172.849609375	-1211.206665039063	-293.8145446777344	1123.34619140625	-1239.966186523438	-375.2947998046876	1110.060913085938	-1209.738647460938	-302.1348876953126	944.0137939453127	-1075.01171875	-257.5716857910157	912.6445312500002	-1108.818969726563	-256.3923950195313	955.445739746094	-1040.497192382813	-260.3707275390626	1374.083740234375	-698.5144653320314	-301.6744995117188	1240.081665039063	-556.8686523437501	-274.4881286621094	1197.711547851563	-559.5825195312501	-315.2494506835938	1182.129760742188	-517.2720336914064	-316.7660827636719	1112.05712890625	-497.2095642089845	-393.4923706054689	1107.518432617188	-542.7902221679689	-319.9369812011719	962.7866210937502	-687.2521362304689	-265.2406311035157	974.9364013671877	-701.4573974609376	-277.6399536132813	924.719421386719	-649.7935180664064	-217.6621856689454	920.0989379882815	-978.998229980469	-217.2591857910157	924.5856933593752	-772.8330078125002	-381.0362243652344	998.226501464844	-873.728698730469	-390.8349914550782	969.8370361328127	-901.9062500000002	-389.4742431640626	968.7669677734377	-845.173522949219	-310.4151916503907	772.3326416015627	-1061.62109375	-275.3417663574219	694.3938598632814	-1070.78564453125	-226.4144134521485	698.3280639648439	-1061.2431640625	-301.6910400390626	639.5775146484376	-1062.230346679688	-281.4209289550782	481.3922729492189	-1057.112182617188	-237.7727661132813	463.2164611816407	-947.7947387695315	-232.337387084961	330.3040771484376	-1015.171569824219	-256.6371154785157	285.7141418457032	-1087.199584960938	-225.2039184570313	285.8957519531251	-1052.944702148438	-231.9571533203126	204.1538848876954	-1032.036010742188	-278.5666809082032	80.86791229248048	-1102.89697265625	-249.0946807861329	90.6844940185547	-1021.504760742188	-329.3820190429688	40.72631454467774	-1055.85791015625	-119.4935836791992	59.99764633178712	-1049.752319335938	-114.0885086059571	62.40282821655275	-1088.3095703125	-134.8107147216797	46.93444442749024	-1137.788452148438	-309.3561401367188	673.1912231445314	-705.7225952148439	-272.0940246582032	618.3661499023439	-702.9462280273439	-236.9830627441407	621.2878417968751	-706.6594848632814	-295.3367004394532	541.7344970703126	-722.6563110351564	-293.2723388671876	478.9549255371095	-728.9475097656251	-255.0081481933594	477.0897521972657	-840.5524902343752	-248.4480895996094	344.9376831054688	-747.0426025390626	-318.1174011230469	262.1560058593751	-732.2815551757814	-271.4452514648438	260.8459472656251	-736.9573364257814	-252.5954895019532	216.4065704345704	-770.309997558594	-313.3794555664063	76.98242950439455	-749.7395019531251	-279.8085327148438	91.3773880004883	-827.739196777344	-358.7160949707032	48.78561401367189	-806.6018066406252	-152.6070098876953	53.3879737854004	-782.277282714844	-157.7463531494141	57.88680267333986	-737.0854492187501	-192.9725494384766	35.67345809936524	-689.9884033203126	
968	4.835	-232.4134979248047	1637.93603515625	-841.8767089843752	-335.1903686523438	1528.313720703125	-946.1748657226565	-331.7694702148438	1531.478515625	-792.645935058594	-350.1679382324219	1421.954711914063	-861.510681152344	-372.7792663574219	1105.82666015625	-874.9909667968752	-204.2634582519532	1357.178833007813	-867.7586059570315	-283.0975341796876	1379.542602539063	-1037.951538085938	-281.8915405273438	1230.311645507813	-1171.554565429688	-264.8657531738282	1186.605590820313	-1154.535034179688	-284.8061828613282	1172.348388671875	-1210.432983398438	-295.2310180664063	1122.813232421875	-1239.044799804688	-376.4732055664063	1109.370971679688	-1208.555541992188	-302.9208679199219	943.568786621094	-1074.121215820313	-258.4871520996094	912.1014404296877	-1107.931884765625	-257.0773010253907	955.3640747070315	-1039.938720703125	-260.9846496582032	1373.787231445313	-697.9980468750001	-302.2445068359376	1239.300537109375	-556.7666625976564	-274.8148498535157	1197.15087890625	-559.4012451171876	-315.4494018554688	1181.299682617188	-517.1845092773439	-316.7564392089844	1111.305419921875	-497.2549133300782	-393.4924621582032	1106.446044921875	-542.7002563476564	-320.6646118164063	961.9757080078127	-687.2908935546876	-266.0171813964844	974.329528808594	-701.0670166015626	-278.0895080566407	923.9820556640627	-649.7867431640626	-218.1415557861329	920.829284667969	-978.6018066406252	-217.843246459961	925.0266113281252	-772.4290771484377	-381.7561340332032	998.4058227539065	-873.2448730468752	-391.4815673828126	969.9797973632815	-901.5396728515627	-390.1377868652345	968.876403808594	-844.8159790039065	-310.2074279785157	772.3365478515627	-1061.205444335938	-275.9942932128907	694.5468750000001	-1070.481567382813	-226.9818420410157	698.6126098632814	-1060.8974609375	-302.2632141113282	639.8732910156251	-1062.109619140625	-281.8148803710938	481.6623840332032	-1056.930419921875	-238.1156463623047	463.3860473632814	-947.5972900390627	-232.5137481689454	330.6273803710938	-1015.160095214844	-257.2606811523438	285.9068603515626	-1087.197631835938	-225.4486694335938	286.1293945312501	-1053.001220703125	-232.2397613525391	204.4612579345704	-1032.019165039063	-278.9020385742188	81.02166748046876	-1102.727661132813	-249.2579650878907	90.8392791748047	-1021.437805175781	-329.4862670898438	40.62556838989259	-1055.704956054688	-119.2817687988282	61.11244201660158	-1049.559326171875	-114.5370712280274	63.21310424804689	-1088.646606445313	-134.9811401367188	47.57042694091798	-1137.905639648438	-310.1112976074219	673.0321655273439	-705.4934082031251	-272.6456298828126	618.3388671875001	-702.7376708984376	-237.637680053711	621.3684692382814	-706.4863281250001	-296.0205078125001	541.6470947265626	-722.4257812500001	-293.7994995117188	478.9052734375001	-728.6603393554689	-255.6185302734376	477.0396118164064	-840.297302246094	-248.7844696044922	344.9158630371094	-746.9153442382814	-318.3920898437501	262.0199279785157	-732.1825561523439	-271.7213439941407	260.8096313476563	-736.7943725585939	-252.7287292480469	216.4007873535157	-770.1990966796877	-313.3176269531251	76.95609283447267	-749.7294311523439	-279.7698974609376	91.36960601806642	-827.7186279296877	-358.6050415039063	48.83647918701173	-806.637390136719	-152.5308990478516	53.32971191406251	-782.2232666015627	-157.745849609375	57.6831512451172	-737.1315307617189	-192.9645080566407	35.61754989624024	-689.9370117187501	
969	4.84	-233.1814117431641	1638.015869140625	-841.6981201171877	-335.6914978027344	1528.143920898438	-946.000183105469	-332.3925781250001	1531.567138671875	-792.5110473632815	-350.7827758789063	1421.972412109375	-861.0908203125002	-373.5842590332032	1105.897338867188	-874.3051757812502	-204.9737548828126	1357.221801757813	-867.4700927734377	-284.5216369628907	1379.3896484375	-1037.748657226563	-283.2593688964844	1229.818115234375	-1170.934692382813	-266.6856384277344	1186.272827148438	-1153.977172851563	-286.2804565429688	1171.697631835938	-1209.437866210938	-296.5059204101563	1122.162475585938	-1238.225708007813	-377.6513366699219	1108.58935546875	-1207.607421875	-303.8654479980469	943.0238037109377	-1073.05615234375	-259.3851318359376	911.5275878906252	-1106.8701171875	-258.9934997558594	955.5435180664065	-1039.571044921875	-261.6018981933594	1373.364501953125	-697.5849609375001	-302.7943420410157	1238.538696289063	-556.6730346679689	-275.1168823242188	1196.506591796875	-559.2111816406251	-315.8002319335938	1180.394409179688	-517.1051025390626	-316.8687438964844	1110.130249023438	-497.2025451660157	-393.5076293945314	1105.78369140625	-542.7705688476564	-321.1803894042969	961.2855224609377	-687.3174438476564	-266.7349548339844	973.7564697265627	-700.7167968750001	-278.6343688964844	923.2167968750002	-649.9442138671876	-219.2165679931641	920.8331298828127	-978.6684570312502	-218.4681549072266	924.7031860351565	-772.4893188476565	-382.4924011230469	998.471618652344	-872.7774047851565	-392.3240356445314	970.076599121094	-901.1687011718752	-390.8520812988282	968.9317626953127	-844.4793090820315	-310.8965148925782	772.6574707031252	-1060.984741210938	-276.5976867675782	694.8298950195314	-1070.328247070313	-227.6275482177735	698.8513793945314	-1060.459106445313	-302.8612060546876	640.1859741210939	-1061.993896484375	-282.1448364257813	481.8846740722657	-1056.812744140625	-238.378890991211	463.6152343750001	-947.4407958984377	-232.2964935302735	330.8095703125001	-1014.946594238281	-257.7315368652344	286.2261352539063	-1087.20458984375	-225.6861114501954	286.4252014160157	-1053.140502929688	-232.8652801513672	205.129623413086	-1032.305786132813	-279.2553100585938	81.22409820556642	-1102.58984375	-249.4025878906251	91.13770294189455	-1021.330810546875	-329.5440979003907	40.51561737060548	-1055.519653320313	-119.5683822631836	61.53250122070314	-1049.74365234375	-114.6642379760742	63.82323455810548	-1088.805053710938	-135.208724975586	48.05580902099611	-1138.064086914063	-310.8009948730469	672.9581909179689	-705.2892456054689	-273.2399291992188	618.2986450195314	-702.5234375000001	-238.2876586914063	621.4964599609376	-706.2640380859376	-296.6104125976563	541.4937133789064	-722.2337036132814	-294.4196472167969	478.8120727539064	-728.4979858398439	-255.9306945800782	477.0422668457032	-840.0127563476565	-249.1206817626954	345.0606384277344	-746.7273559570314	-318.6911315917969	261.9875793457032	-732.1792602539064	-272.0422058105469	260.7798767089844	-736.7141723632814	-252.9109497070313	216.4224548339844	-770.0815429687502	-313.2984008789063	76.9368362426758	-749.7118530273439	-279.7991027832032	91.24081420898439	-827.6629028320315	-358.6093139648438	48.88515090942384	-806.5913696289065	-152.5304718017578	53.29097366333009	-782.2151489257815	-157.5888366699219	57.64661026000978	-737.0778198242189	-192.9199371337891	35.60826492309571	-689.8789062500001	
970	4.845	-233.863021850586	1638.079956054688	-841.4783935546877	-336.4690551757813	1528.08447265625	-945.6423339843752	-333.0103149414063	1531.671752929688	-792.1404418945315	-351.4166564941407	1422.047607421875	-860.624206542969	-374.2841186523438	1105.92626953125	-873.766784667969	-205.6349029541016	1357.28076171875	-867.069030761719	-285.2381896972657	1379.163452148438	-1037.495727539063	-284.7984008789063	1229.222778320313	-1170.241943359375	-267.6903991699219	1185.755126953125	-1153.226684570313	-287.6604309082032	1171.185180664063	-1208.858642578125	-297.8588256835938	1121.450073242188	-1237.098876953125	-378.8969116210938	1107.884521484375	-1206.099487304688	-304.7228393554688	942.4011840820315	-1071.974731445313	-260.4783935546876	910.950866699219	-1105.592041015625	-259.6590270996094	955.4817504882815	-1039.110229492188	-262.3538818359376	1372.908325195313	-697.1411132812501	-303.2640686035157	1237.68310546875	-556.6167602539064	-275.5741577148438	1195.627807617188	-559.1182250976564	-316.1199340820313	1179.567749023438	-517.0278930664064	-316.8430175781251	1109.022338867188	-497.295379638672	-393.6480407714845	1104.961669921875	-542.5150146484376	-322.0603637695313	960.5733032226565	-687.3974609375001	-267.3271179199219	973.218444824219	-700.2891845703126	-279.2290649414063	922.2115478515627	-650.5264892578126	-219.9927368164063	921.7359008789065	-978.6597900390627	-219.2544250488282	924.253845214844	-772.4578857421877	-383.2736816406251	998.6945800781252	-872.341735839844	-393.0967712402345	970.467224121094	-900.8178710937502	-391.6604309082032	968.8659667968752	-844.1196289062502	-311.6627807617188	772.8911132812502	-1060.568115234375	-277.2592163085938	695.2474975585939	-1070.259643554688	-228.7621459960938	699.3545532226564	-1060.261352539063	-303.5378723144532	640.5469970703126	-1061.841552734375	-282.4257812500001	482.0888977050782	-1056.729370117188	-238.5589752197266	463.8861694335939	-947.3699340820315	-232.8126373291016	331.2330932617188	-1015.303833007813	-258.2835388183594	286.5426635742188	-1087.095092773438	-225.9503326416016	286.7733459472657	-1053.380004882813	-232.9812927246094	205.4596405029297	-1032.338256835938	-279.6370544433594	81.49309539794923	-1102.41015625	-249.6211395263672	91.43701934814455	-1021.268798828125	-329.6607055664063	40.47772979736329	-1055.330078125	-119.7805404663086	62.134334564209	-1050.1103515625	-114.9217987060547	64.56579589843751	-1089.080444335938	-135.564208984375	48.53699111938478	-1138.2919921875	-311.5335693359376	672.8854980468751	-705.1871948242189	-273.7957458496094	618.2653198242189	-702.4160156250001	-238.7831268310547	621.5611572265626	-706.1698608398439	-297.1666564941407	541.4725952148439	-722.1163330078126	-295.0421447753907	478.6996154785157	-728.4529418945314	-256.4662475585938	477.0131225585939	-839.9238281250002	-249.6842803955079	345.0172424316407	-746.5886230468751	-318.9656677246094	261.9732360839844	-732.1283569335939	-272.4063415527344	260.7426147460938	-736.6303710937501	-253.2100677490235	216.4342498779297	-770.0164184570315	-313.2638854980469	76.84109497070314	-749.6965942382814	-279.5834960937501	91.18999481201173	-827.6259765625002	-358.5594787597657	48.91555404663087	-806.5654296875002	-152.4949188232422	53.27750396728517	-782.184265136719	-157.6312103271485	57.44240570068361	-737.0512084960939	-192.9100952148438	35.57821273803712	-689.8155517578126	
